A Great British Air Disaster
The rise and fall of the De Havilland Comet, the world's first passenger jet airliner,
once considered a triumph for the British aviation industry. Designed during the Second World War,
it proved an instant hit with the public when it came into service in 1952, but then, in the space of just four months in 1954,
two aircraft blew up in mid-air, killing all passengers and crew. On the direct order of prime minister Winston Churchill,
a team of leading aviation experts was assembled to discover what had gone wrong.






General
Complete name                            : A.Great.British.Air.Disaster.WS.PDTV.XviD-W33D.avi
Format                                   : AVI
Format/Info                              : Audio Video Interleave
Format profile                           : OpenDML
Format settings                          : rec
File size                                : 368 MiB
Duration                                 : 47mn 36s
Overall bit rate mode                    : Variable
Overall bit rate                         : 1 081 Kbps
Writing application                      : AVI-Mux GUI 1.17.8.3, Feb 16 201019:42:50

Video
ID                                       : 0
Format                                   : MPEG-4 Visual
Format profile                           : Advanced Simple@L5
Format settings, BVOP                    : 1
Format settings, QPel                    : No
Format settings, GMC                     : No warppoints
Format settings, Matrix                  : Default (H.263)
Codec ID                                 : XVID
Codec ID/Hint                            : XviD
Duration                                 : 47mn 36s
Bit rate                                 : 943 Kbps
Width                                    : 608 pixels
Height                                   : 336 pixels
Display aspect ratio                     : 16:9
Frame rate                               : 25.000 fps
Color space                              : YUV
Chroma subsampling                       : 4:2:0
Bit depth                                : 8 bits
Scan type                                : Progressive
Compression mode                         : Lossy
Bits/(Pixel*Frame)                       : 0.185
Stream size                              : 321 MiB (87%)
Writing library                          : XviD 1.1.2 (UTC 2006-11-01)

Audio
ID                                       : 1
Format                                   : MPEG Audio
Format version                           : Version 1
Format profile                           : Layer 3
Mode                                     : Joint stereo
Mode extension                           : MS Stereo
Codec ID                                 : 55
Codec ID/Hint                            : MP3
Duration                                 : 47mn 36s
Bit rate mode                            : Variable
Bit rate                                 : 128 Kbps
Channel(s)                               : 2 channels
Sampling rate                            : 48.0 KHz
Compression mode                         : Lossy
Stream size                              : 44.0 MiB (12%)
Alignment                                : Aligned on interleaves
Interleave, duration                     : 24 ms (0.60 video frame)
Interleave, preload duration             : 178 ms
Writing library                          : LAME3.90.
Encoding settings                        : -m j -V 4 -q 2 -lowpass 17.6 --abr 128